<?xml version="1.0" encoding="UTF-8" standalone="no"?>
<!-- Created with Inkscape (http://www.inkscape.org/) -->

<svg
   xmlns:dc="http://purl.org/dc/elements/1.1/"
   xmlns:cc="http://creativecommons.org/ns#"
   xmlns:rdf="http://www.w3.org/1999/02/22-rdf-syntax-ns#"
   xmlns:svg="http://www.w3.org/2000/svg"
   xmlns="http://www.w3.org/2000/svg"
   xmlns:sodipodi="http://sodipodi.sourceforge.net/DTD/sodipodi-0.dtd"
   xmlns:inkscape="http://www.inkscape.org/namespaces/inkscape"
   version="1.1"
   id="svg815"
   width="210"
   height="220"
   viewBox="0 0 210 220"
   sodipodi:docname="canvate1.svg"
   inkscape:version="0.92.2 (5c3e80d, 2017-08-06)">
  <metadata
     id="metadata821">
    <rdf:RDF>
      <cc:Work
         rdf:about="">
        <dc:format>image/svg+xml</dc:format>
        <dc:type
           rdf:resource="http://purl.org/dc/dcmitype/StillImage" />
        <dc:title></dc:title>
      </cc:Work>
    </rdf:RDF>
  </metadata>
  <defs
     id="defs819" />
  <sodipodi:namedview
     pagecolor="#ffffff"
     bordercolor="#666666"
     borderopacity="1"
     objecttolerance="10"
     gridtolerance="10"
     guidetolerance="10"
     inkscape:pageopacity="0"
     inkscape:pageshadow="2"
     inkscape:window-width="1280"
     inkscape:window-height="971"
     id="namedview817"
     showgrid="false"
     inkscape:zoom="2.5986868"
     inkscape:cx="125.3754"
     inkscape:cy="82.999918"
     inkscape:window-x="-8"
     inkscape:window-y="-8"
     inkscape:window-maximized="1"
     inkscape:current-layer="svg815"
     showguides="true"
     inkscape:guide-bbox="true" />
  <g
     aria-label="Canvate  JS"
     transform="matrix(0.93316925,0,-0.30982868,0.93316925,22.874486,11.37017)"
     style="font-style:normal;font-weight:normal;font-size:42.39542389px;line-height:1.25;font-family:sans-serif;letter-spacing:0px;word-spacing:0px;fill:#000000;fill-opacity:1;stroke:none;stroke-width:1.0598855"
     id="text10565-2">
    <path
       id="path2909"
       style="font-style:normal;font-variant:normal;font-weight:normal;font-stretch:normal;font-family:Khand;-inkscape-font-specification:Khand;stroke-width:0.88273579"
       d="m 191.25599,43.864329 h 2.40383 l 0.46702,17.454759 q 0.12616,4.713521 -0.87883,8.911501 l -0.94611,3.86656 h -2.47154 l 0.91225,-3.86656 q 1.09273,-4.713522 0.98139,-8.874676 z m 5.85368,5.008117 q -0.0651,-2.43041 1.38821,-3.792912 1.45226,-1.399326 4.12694,-1.399326 2.70855,0 4.58743,0.626014 l 0.067,2.504058 q -1.77927,-0.699664 -4.31853,-0.699664 -3.48725,0 -3.41039,2.872303 l 0.0473,1.76757 q 0.0345,1.288854 0.49433,2.025342 0.4937,0.736487 1.59487,1.399326 l 3.99143,2.393585 q 2.78575,1.620273 2.87344,4.897644 l 0.0532,1.988517 q 0.068,2.540882 -1.48585,3.940208 -1.55382,1.399327 -4.56708,1.399327 -2.9794,0 -4.75966,-0.736488 l -0.067,-2.504057 q 2.01923,0.810136 4.5585,0.810136 3.99509,0 3.91332,-3.056424 l -0.0414,-1.546625 q -0.0325,-1.215204 -0.4575,-1.914868 -0.42501,-0.699663 -1.49133,-1.325678 l -3.9556,-2.319936 q -2.99185,-1.730746 -3.08348,-5.155413 z"
       inkscape:connector-curvature="0" />
    <path
       id="path2859"
       style="font-style:normal;font-variant:normal;font-weight:normal;font-stretch:normal;font-family:Khand;-inkscape-font-specification:Khand;stroke-width:1.0598855"
       d="m 58.43114,46.113614 q 0,-6.02015 7.631176,-6.02015 2.458934,0 4.917869,0.678327 v 2.798098 q -2.50133,-0.720722 -5.00266,-0.720722 -2.50133,0 -3.51882,0.890303 -1.01749,0.847909 -1.01749,2.543726 v 16.576611 q 0,1.653421 1.01749,2.543725 1.059885,0.847909 3.646006,0.847909 2.628517,0 4.960265,-0.678327 v 2.755702 q -2.119771,0.678327 -5.00266,0.678327 -7.631176,0 -7.631176,-6.02015 z m 22.322516,-1.653421 q 7.207222,0 7.207222,6.147336 v 18.187637 h -2.882889 v -1.738212 q -2.162167,1.907794 -5.172242,1.907794 -5.892964,0 -5.892964,-5.808173 v -1.356654 q 0,-4.409124 5.129847,-5.850568 l 5.935359,-1.653422 v -3.688402 q -0.04239,-1.738212 -0.975095,-2.543725 -0.932699,-0.805513 -3.773192,-0.805513 -2.798098,0 -5.172242,0.847908 v -2.840493 q 2.416539,-0.805513 5.596196,-0.805513 z m -3.815588,17.466914 v 1.271863 q 0,1.695817 0.805513,2.50133 0.805513,0.805513 3.05247,0.805513 2.246958,0 4.239543,-1.653421 v -7.927945 l -4.833079,1.356654 q -1.907794,0.55114 -2.586121,1.356653 -0.678326,0.805514 -0.678326,2.289353 z M 96.515479,45.774451 q 2.840493,-1.187072 5.172241,-1.187072 2.37414,0 3.90038,1.48384 1.52623,1.441444 1.52623,4.112356 v 18.611591 h -3.01007 V 50.480343 q 0,-3.094866 -3.13726,-3.094866 -1.992586,0 -4.324335,1.102281 V 68.795166 H 93.63259 V 44.67217 h 2.882889 z M 122.42637,44.67217 h 3.05247 l -5.34182,24.122996 h -4.23954 L 110.55565,44.67217 h 3.09487 l 2.33175,11.065205 2.07737,10.93802 q 1.27187,-7.037641 4.36673,-22.003225 z m 11.90119,-0.211977 q 7.20722,0 7.20722,6.147336 v 18.187637 h -2.88289 v -1.738212 q -2.16216,1.907794 -5.17224,1.907794 -5.89296,0 -5.89296,-5.808173 v -1.356654 q 0,-4.409124 5.12984,-5.850568 l 5.93536,-1.653422 v -3.688402 q -0.0424,-1.738212 -0.97509,-2.543725 -0.9327,-0.805513 -3.77319,-0.805513 -2.7981,0 -5.17225,0.847908 v -2.840493 q 2.41654,-0.805513 5.5962,-0.805513 z m -3.81559,17.466914 v 1.271863 q 0,1.695817 0.80551,2.50133 0.80552,0.805513 3.05248,0.805513 2.24695,0 4.23954,-1.653421 v -7.927945 l -4.83308,1.356654 q -1.90779,0.55114 -2.58612,1.356653 -0.67833,0.805514 -0.67833,2.289353 z m 19.66221,-21.621666 v 4.366729 h 5.38421 v 2.670912 h -5.38421 v 16.110261 q 0,1.483839 0.72072,2.162166 0.72072,0.635932 2.20456,0.635932 1.48384,0 2.88289,-0.46635 v 2.755702 q -1.69582,0.423955 -3.17966,0.423955 -5.68098,0 -5.68098,-5.384219 V 47.343082 h -2.62852 V 44.67217 h 2.7557 l 0.84791,-4.366729 z m 11.91377,15.431934 h 7.88555 v -4.875473 q 0,-3.98517 -3.94277,-3.98517 -3.94278,0 -3.94278,3.98517 z m -2.96768,6.910455 V 50.861902 q 0,-3.010075 1.69582,-4.790683 1.73821,-1.823003 5.21464,-1.823003 3.47642,0 5.12984,1.823003 1.69582,1.780608 1.69582,4.790683 v 7.376803 h -10.76844 v 4.281938 q 0,1.907794 1.18707,2.840494 1.18708,0.932699 3.68841,0.932699 2.50133,0 5.17224,-0.763118 v 2.798098 q -2.11977,0.678327 -5.04506,0.678327 -7.97034,0 -7.97034,-6.359313 z"
       inkscape:connector-curvature="0" />
  </g>
  <text
     xml:space="preserve"
     style="font-style:normal;font-weight:normal;font-size:17.49296379px;line-height:1.25;font-family:sans-serif;letter-spacing:0px;word-spacing:0px;fill:#000000;fill-opacity:1;stroke:none;stroke-width:0.43732414"
     x="78.48764"
     y="92.259659"
     id="text10569-4"><tspan
       sodipodi:role="line"
       id="tspan10567-9"
       x="78.48764"
       y="92.259659"
       style="font-style:normal;font-variant:normal;font-weight:normal;font-stretch:normal;font-family:khand;-inkscape-font-specification:khand;stroke-width:0.43732414">canvas library</tspan></text>
  <circle
     style="fill:#ff0000;fill-opacity:1;stroke:none;stroke-width:0.17471696;stroke-linecap:round;stroke-linejoin:round;stroke-miterlimit:4;stroke-dasharray:none;stroke-opacity:1;paint-order:normal"
     id="path10642"
     cx="172.44041"
     cy="72.462692"
     r="3.3344805" />
  <path
     sodipodi:type="star"
     style="fill:#000000;fill-opacity:0;stroke:none;stroke-width:1;stroke-linecap:round;stroke-linejoin:round;stroke-miterlimit:4;stroke-dasharray:none;stroke-opacity:1;paint-order:normal"
     id="path2679"
     sodipodi:sides="5"
     sodipodi:cx="-377.49832"
     sodipodi:cy="-388.73346"
     sodipodi:r1="323.93066"
     sodipodi:r2="161.96533"
     sodipodi:arg1="0.67877047"
     sodipodi:arg2="1.307089"
     inkscape:flatsided="false"
     inkscape:rounded="0"
     inkscape:randomized="0"
     d="m -125.36843,-185.35797 -209.91177,-47.00926 -157.72729,146.270033 -20.15784,-214.164613 -187.85148,-104.80765 197.45354,-85.35175 41.6287,-211.04471 142.19083,161.41433 213.57943,-25.62516 -109.57477,185.11129 z"
     inkscape:transform-center-x="26.092236"
     inkscape:transform-center-y="-5.0481008" />
  <path
     style="font-style:normal;font-weight:normal;font-size:42.56049347px;line-height:1.25;font-family:sans-serif;letter-spacing:0px;word-spacing:0px;fill:#00ffff;fill-opacity:1;stroke:none;stroke-width:0.13753356"
     d="m 41.204096,1.6788898 c -0.095,0.0718 0.13378,1.81743 0.35167,2.68403 0.31398,1.24865 2.09664,2.37909 3.06829,3.53534 7.36574,1.89097 9.53229,3.5076802 14.57376,5.7705202 0.4446,0.20641 0.87007,0.57763 1.27273,1.01861 -0.49409,0.14257 -0.93957,0.28326 -1.42047,0.42516 -0.85314,-0.14462 -1.71021,-0.26845 -2.57272,-0.35142 -20.51301,-1.89123 -38.62083,13.8174 -40.44512,35.0864 -1.7434,20.46616 12.25512,38.77205 31.87157,41.67727 0.19131,0.0762 0.3918,0.12472 0.59584,0.14431 1.23142,0.11453 2.3191,-0.82802 2.42897,-2.10487 0.10915,-1.27693 -0.80104,-2.40369 -2.03264,-2.51625 -0.0247,-0.002 -0.0491,-0.003 -0.0738,-0.005 -17.43824,-2.41468 -29.96154,-18.62207 -28.4304,-36.79432 0.92328,-4.11615 2.8976,-7.8578 5.47544,-11.2138 -1.19109,2.8967 -1.97558,6.03161 -2.25914,9.33794 -1.38556,16.26865 9.74176,30.81998 25.33489,33.12973 0.15207,0.061 0.31148,0.0998 0.47378,0.11569 0.97887,0.0904 1.84303,-0.65923 1.9299,-1.6742 0.0858,-1.0141 -0.63694,-1.90857 -1.61491,-1.99857 -0.02,-8.4e-4 -0.0398,-0.003 -0.0596,-0.003 -13.86286,-1.91936 -23.81828,-14.80411 -22.60025,-29.25035 0.56209,-6.4907 3.35963,-12.55449 7.87999,-17.08233 -2.77876,3.83124 -4.47098,8.39066 -4.88611,13.16499 -1.16149,13.63077 8.16201,25.82288 21.22687,27.75812 0.12725,0.0507 0.26066,0.0831 0.39643,0.0961 0.82088,0.0773 1.54632,-0.55115 1.61924,-1.40243 0.0719,-0.85042 -0.53515,-1.60008 -1.35538,-1.67423 -0.0157,-0.002 -0.0317,-0.003 -0.0475,-0.005 -11.61462,-1.60762 -19.95601,-12.40212 -18.9365,-24.50553 0.79996,-9.32291 6.92581,-16.82158 14.9876,-19.57513 3.56802,-0.47381 6.41729,-0.58056 7.63874,1.78432 2.82871,4.07323 -11.34771,6.25465 -6.83474,20.55775 -1.75671,-16.06678 6.01979,-11.71426 12.77998,-18.48764 l 10.88384,-1.73993 c 1.75985,0.73167 6.71355,2.495 10.52878,3.34929 0.0171,0.48538 -0.0473,1.40031 -0.2382,3.28012 l 2.37591,-2.88192 c 0.27507,0.035 0.53736,0.0619 0.77881,0.0787 0.19149,0.33343 0.46464,0.63669 0.60549,0.67402 0.49436,0.13091 0.16931,2.93636 -0.51565,4.44875 l -0.32515,0.71982 0.75228,-0.36761 c 1.36415,-0.66909 2.65909,-2.32373 3.01172,-3.84618 L 89.551316,32.37 c 0.45957,-2.30144 -0.0112,2.41356 1.17013,-3.42509 -0.12768,-0.22275 -0.0635,-0.62264 0.19035,-1.21391 -3.36683,-1.76941 -6.43069,-2.30535 -9.12389,-4.2625 -0.41999,-0.58402 -0.51075,-0.84679 -0.47875,-1.36995 0.0365,-0.59762 -0.0138,-0.70539 -0.646,-1.43005 -0.37644,-0.43143 -1.1437,-1.10141 -1.70419,-1.48788 -0.27092,-0.18701 -0.63051,-0.40279 -1.02581,-0.63087 l -0.12058,-0.15766 c -2.05792,-2.66742 -7.45003,-7.28593 -11.15765,-9.5569802 -3.84735,-2.35661 -8.93911,-4.42324 -13.36107,-5.42037 -4.0901,-0.92232 -5.68153,-0.96388 -2.44411,-0.064 5.03914,1.40055 10.01862,3.91447 14.67711,7.4137102 1.48174,1.11303 3.55592,3.0132 4.29731,3.83487 l -5.1866,-2.59604 c -6.58523,-2.5672602 -8.41814,-2.8761802 -16.46918,-5.0290502 -2.61801,-1.34607 -4.90948,-1.45049 -6.1893,-3.91496 -0.40283,-0.77586 -0.75233,-1.39758 -0.77459,-1.38231 z M 70.313256,20.39657 c 0.25235,0.022 0.56582,0.0577 0.93132,0.11322 0.47342,0.0729 0.90044,0.16369 1.289,0.27031 1.16572,0.3209 1.98376,0.80824 2.65379,1.55558 0.40004,0.44614 0.94927,0.926 1.21842,1.06573 0.68653,0.3561 0.68097,0.42747 -0.0348,0.48094 -0.34426,0.0265 -0.7136,0.10453 -0.81957,0.17518 -0.69705,0.46688 -2.85194,-0.66847 -3.53953,-1.86566 -0.33977,-0.5916 -1.26227,-1.29947 -2.03536,-1.56313 -0.4174,-0.14236 -0.46597,-0.22992 -0.22743,-0.25187 l -2.7e-4,0.003 c 0.11926,-0.0108 0.31102,-0.005 0.56362,0.0171 z m 0.6227,8.73717 -7.90839,1.08075 c 1.05056,0.71788 4.94295,3.54222 5.93042,4.16917 0.80524,0.52948 2.16883,1.62347 3.02904,2.42936 l 1.56272,1.46244 0.56322,1.86436 c 0.30942,1.02574 0.6536,2.02399 0.76519,2.21815 0.11148,0.19431 0.6355,0.5706 1.16397,0.83477 0.52845,0.26416 1.01265,0.57342 1.07841,0.68784 0.13668,0.238 -0.13581,1.203 -0.45754,1.62128 -0.35928,0.46702 0.0728,0.49133 0.73408,0.0403 0.49355,-0.33639 0.6315,-0.3626 0.67455,-0.13146 0.0636,0.34287 0.34982,0.18034 0.61152,-0.34581 0.0999,-0.2009 0.23618,-0.58739 0.30351,-0.85837 0.10279,-0.4116 0.21159,-0.5123 0.6516,-0.61772 0.40569,-0.0971 0.61041,-0.25587 0.88774,-0.6903 0.51195,-0.80214 0.9173,-2.52218 0.61348,-2.60247 -0.16524,-0.0436 -0.21063,-0.22045 -0.15223,-0.57018 0.0467,-0.27862 0.01,-0.74843 -0.0806,-1.04275 l -0.16489,-0.5341 -0.27367,0.87353 c -0.40914,1.29923 -0.73481,1.59628 -1.42295,1.29142 l -0.56495,-0.25319 c 0,0 -0.20291,1.51811 -2.92598,-2.17903 -1.57444,-2.10398 -1.89637,-2.68531 -2.45583,-4.42232 -0.14548,-0.45169 -1.96581,-3.57519 -2.16239,-4.32574 z"
     id="path10251-4-7-5"
     inkscape:connector-curvature="0"
     sodipodi:nodetypes="cccccccccccccccccccccccccccccccccccccccccccccccccccccccccccccccccccccccccccccccccccccccccccccccccccccc" />
  <path
     style="font-style:normal;font-weight:normal;font-size:42.56049347px;line-height:1.25;font-family:sans-serif;letter-spacing:0px;word-spacing:0px;fill:#00ffff;fill-opacity:1;stroke:none;stroke-width:0.14014617"
     d="m 28.571366,122.94973 c -0.0894,0.0817 0.26771,1.87297 0.54895,2.75421 0.40525,1.26975 2.26537,2.30406 3.31919,3.42749 7.48026,1.39304 9.75892,2.90172 14.95039,4.85885 0.45833,0.1797 0.90979,0.53166 1.34368,0.95764 -0.48185,0.18575 -0.91538,0.36579 -1.38415,0.54978 -0.86088,-0.0842 -1.72418,-0.14664 -2.58984,-0.16628 -20.5823,-0.38229 -37.4660395,17.28802 -37.7110595,39.46791 -0.22378,21.34177 15.0804095,39.23441 34.8442195,40.73637 0.19628,0.0642 0.39967,0.0991 0.60447,0.10372 1.23564,0.024 2.24987,-1.03637 2.26494,-2.36793 0.0144,-1.33159 -0.97607,-2.42917 -2.21175,-2.4511 -0.0247,1.4e-4 -0.0492,-6e-4 -0.0739,4.2e-4 -17.55683,-1.16116 -31.23568,-16.99271 -31.05377,-35.94113 0.61569,-4.33628 2.30648,-8.36534 4.62725,-12.04115 -0.97275,3.09324 -1.52269,6.40207 -1.56076,9.84999 -0.17761,16.96464 11.98761,31.18749 27.69789,32.38179 0.15605,0.0514 0.3178,0.0795 0.4807,0.0834 0.9822,0.0184 1.78794,-0.82482 1.79944,-1.88325 0.0106,-1.05745 -0.77589,-1.92876 -1.75715,-1.9468 -0.02,6.6e-4 -0.0399,4.3e-4 -0.0595,0.002 -13.9571,-0.92282 -24.83116,-13.50885 -24.68574,-28.57217 0.0801,-6.76909 2.41958,-13.26772 6.58952,-18.30723 -2.48585,4.18375 -3.83504,9.03848 -3.89565,14.01774 -0.1494,14.21396 10.0437,26.13082 23.20672,27.13145 0.13057,0.0427 0.26592,0.066 0.40218,0.0691 0.82377,0.017 1.50024,-0.69004 1.50996,-1.57775 0.009,-0.88676 -0.65165,-1.6169 -1.47455,-1.63066 -0.0157,-5.5e-4 -0.0318,-1.9e-4 -0.0477,-0.002 -11.69351,-0.77217 -20.80451,-11.31631 -20.68365,-23.93667 0.10773,-9.72221 5.65789,-17.96366 13.48832,-21.43694 3.52069,-0.76537 6.02994,-2.70678 7.7444,1.26155 1.71446,3.96832 -19.23853,-1.92211 -15.50744,15.0746 -0.93865,-16.56893 15.34934,-5.84804 21.58533,-13.38668 l 10.71771,-2.63996 c 1.8079,0.62285 6.87497,2.06913 10.74025,2.66096 0.053,0.50165 0.0564,1.45469 0.005,3.41729 l 2.15459,-3.16904 c 0.27671,0.0151 0.54009,0.0226 0.78195,0.0215 0.21549,0.3308 0.51014,0.62403 0.65325,0.65189 0.50235,0.0976 0.38591,3.02973 -0.18485,4.64958 l -0.27079,0.77092 0.72249,-0.43879 c 1.30998,-0.79823 2.47809,-2.6124 2.71692,-4.21714 l 0.10318,-0.70206 c 0.28778,-2.42016 0.1673,2.50186 0.91279,-3.63918 -0.1437,-0.22102 -0.10928,-0.64031 0.0999,-1.27253 -3.48609,-1.5746 -6.57905,-1.89435 -9.40773,-3.7153 -0.46174,-0.57287 -0.57162,-0.83818 -0.57841,-1.38276 -0.008,-0.62208 -0.066,-0.72989 -0.74954,-1.43219 -0.40706,-0.41811 -1.22123,-1.05337 -1.80837,-1.41073 -0.28383,-0.17296 -0.65814,-0.3689 -1.06894,-0.57484 l -0.13183,-0.15411 c -2.24811,-2.60581 -7.96323,-6.97699 -11.82605,-9.04521 -4.00841,-2.14613 -9.23548,-3.89607 -13.71597,-4.58927 -4.14424,-0.6412 -5.73326,-0.56189 -2.44044,0.12159 5.12538,1.06378 10.27365,3.28585 15.17491,6.55364 1.55895,1.0394 3.76652,2.84891 4.56612,3.64333 l -5.36073,-2.29123 c -6.75244,-2.15388 -8.6019,-2.33304 -16.78445,-3.94476 -2.70854,-1.19352 -4.99987,-1.12551 -6.45754,-3.58085 -0.45882,-0.77299 -0.85309,-1.39037 -0.87417,-1.37282 z m 30.39327,17.15731 c 0.25312,0.003 0.56814,0.0162 0.93649,0.0458 0.47719,0.0392 0.90945,0.10037 1.30457,0.18097 1.18544,0.24288 2.0367,0.68498 2.75971,1.40786 0.43164,0.43155 1.01448,0.88656 1.29303,1.01064 0.71051,0.31622 0.71024,0.39061 8.4e-4,0.50105 -0.34111,0.0539 -0.7034,0.16319 -0.80379,0.24455 -0.66012,0.53741 -2.89156,-0.47336 -3.66533,-1.66106 -0.38234,-0.58691 -1.35403,-1.24948 -2.14395,-1.46323 -0.4265,-0.11544 -0.48138,-0.20242 -0.24529,-0.24351 l -8e-5,0.003 c 0.11806,-0.0203 0.30959,-0.0291 0.56295,-0.0256 z m 1.26675,9.00586 -7.80126,1.72806 c 1.10005,0.6631 5.18792,3.29045 6.21836,3.86417 0.84162,0.48674 2.28143,1.51551 3.19828,2.28445 l 1.66551,1.39525 0.69916,1.8886 c 0.38421,1.03911 0.80104,2.04706 0.92661,2.23967 0.12546,0.19278 0.67551,0.54241 1.2217,0.77551 0.54616,0.23309 1.05156,0.51632 1.12557,0.62983 0.1538,0.23611 -0.0464,1.25703 -0.33606,1.71519 -0.32351,0.51158 0.10893,0.50354 0.73453,-0.0147 0.46697,-0.38654 0.6025,-0.42431 0.66251,-0.18809 0.0888,0.35038 0.36195,0.15996 0.58383,-0.40538 0.0847,-0.21587 0.19193,-0.62684 0.23899,-0.91282 0.072,-0.43443 0.17297,-0.54712 0.60367,-0.69021 0.39711,-0.13183 0.58939,-0.31207 0.83364,-0.78358 0.45086,-0.87058 0.72761,-2.6841 0.41889,-2.74394 -0.16789,-0.0324 -0.22621,-0.21223 -0.19386,-0.57912 0.0258,-0.29229 -0.0455,-0.7763 -0.15746,-1.07434 l -0.20383,-0.54076 -0.20812,0.92622 c -0.31166,1.37776 -0.61424,1.71063 -1.32255,1.44763 l -0.58173,-0.21891 c 0,0 -0.0899,1.58872 -3.07707,-2.03297 -1.72463,-2.05914 -2.08844,-2.63677 -2.77444,-4.39369 -0.17839,-0.45687 -2.22346,-3.55355 -2.47487,-4.31618 z"
     id="path10251-4-7-5-3"
     inkscape:connector-curvature="0"
     sodipodi:nodetypes="ccccccccccccccccccccccccccccccczccccccccccccccccccccccccccccccccccccccccccccccccccccccccccccccccccccccc" />
  <circle
     style="fill:#ff0000;fill-opacity:1;stroke:none;stroke-width:0.35660928;stroke-linecap:round;stroke-linejoin:round;stroke-miterlimit:4;stroke-dasharray:none;stroke-opacity:1;paint-order:normal"
     id="path10642-5-8"
     cx="32.036064"
     cy="172.8744"
     r="6.8059044"
     transform="rotate(-4.2442743)" />
  <g
     aria-label="Canvate  JS"
     transform="matrix(0.96520041,0,-0.32046359,0.96520041,147.06476,6.7569298)"
     style="font-style:normal;font-weight:normal;font-size:42.39542389px;line-height:1.25;font-family:sans-serif;letter-spacing:0px;word-spacing:0px;fill:#000000;fill-opacity:1;stroke:none;stroke-width:1.0598855"
     id="text10565-2-5">
    <path
       id="path2909-7"
       style="font-style:normal;font-variant:normal;font-weight:normal;font-stretch:normal;font-family:Khand;-inkscape-font-specification:Khand;stroke-width:0.71869415"
       d="m 93.864619,180.89275 h 1.95712 l 0.38024,14.21108 q 0.10271,3.83759 -0.71552,7.25545 l -0.77029,3.14802 h -2.01225 l 0.74273,-3.14802 q 0.88966,-3.8376 0.79901,-7.22547 z m 4.765879,4.07744 q -0.053,-1.97876 1.13023,-3.08807 1.182382,-1.13928 3.360022,-1.13928 2.20521,0 3.73493,0.50968 l 0.0546,2.03872 q -1.44862,-0.56964 -3.516,-0.56964 -2.83921,0 -2.77663,2.33853 l 0.0385,1.4391 q 0.0281,1.04934 0.40247,1.64896 0.40195,0.59963 1.29849,1.13929 l 3.24969,1.94878 q 2.26806,1.31917 2.33946,3.98749 l 0.0433,1.61899 q 0.0554,2.0687 -1.20973,3.20799 -1.26507,1.13928 -3.71836,1.13928 -2.42573,0 -3.875162,-0.59962 l -0.0546,-2.03872 q 1.643992,0.65958 3.711382,0.65958 3.25267,0 3.18609,-2.48844 l -0.0337,-1.25921 q -0.0265,-0.98938 -0.37248,-1.55902 -0.34603,-0.56964 -1.2142,-1.07932 l -3.22051,-1.88882 q -2.435872,-1.40911 -2.510472,-4.19736 z"
       inkscape:connector-curvature="0" />
    <path
       id="path2859-0"
       style="font-style:normal;font-variant:normal;font-weight:normal;font-stretch:normal;font-family:Khand;-inkscape-font-specification:Khand;stroke-width:1.0598855"
       d="m -34.920939,178.20152 q 0,-6.02015 7.63118,-6.02015 2.45893,0 4.91787,0.67833 v 2.7981 q -2.50133,-0.72073 -5.00266,-0.72073 -2.50133,0 -3.51882,0.89031 -1.01749,0.84791 -1.01749,2.54372 v 16.57661 q 0,1.65343 1.01749,2.54373 1.05988,0.84791 3.646,0.84791 2.62852,0 4.96027,-0.67833 v 2.7557 q -2.11977,0.67833 -5.00266,0.67833 -7.63118,0 -7.63118,-6.02015 z m 22.32252,-1.65342 q 7.2072195,0 7.2072195,6.14734 v 18.18763 h -2.88289 v -1.73821 q -2.1621595,1.9078 -5.1722395,1.9078 -5.89296,0 -5.89296,-5.80818 v -1.35665 q 0,-4.40913 5.12984,-5.85057 l 5.9353595,-1.65342 v -3.6884 q -0.0424,-1.73822 -0.97509,-2.54373 -0.9326995,-0.80551 -3.7731895,-0.80551 -2.7981,0 -5.17225,0.84791 v -2.8405 q 2.41654,-0.80551 5.5962,-0.80551 z m -3.81559,17.46691 v 1.27187 q 0,1.69581 0.80551,2.50133 0.80552,0.80551 3.05247,0.80551 2.24696,0 4.2395495,-1.65342 v -7.92795 l -4.8330795,1.35666 q -1.9078,0.55114 -2.58612,1.35665 -0.67833,0.80552 -0.67833,2.28935 z M 3.1634005,177.86236 q 2.8405,-1.18707 5.17224,-1.18707 2.3741405,0 3.9003805,1.48384 1.52623,1.44144 1.52623,4.11235 v 18.61159 h -3.01007 v -18.31482 q 0,-3.09487 -3.1372605,-3.09487 -1.99258,0 -4.32433,1.10229 v 20.3074 H 0.28051053 V 176.76008 H 3.1634005 Z m 25.9108905,-1.10228 h 3.05247 l -5.34182,24.12299 h -4.23954 l -5.34183,-24.12299 h 3.09487 l 2.33175,11.0652 2.07737,10.93802 q 1.27187,-7.03764 4.36673,-22.00322 z m 11.90119,-0.21198 q 7.20722,0 7.20722,6.14734 v 18.18763 h -2.88289 v -1.73821 q -2.16216,1.9078 -5.17224,1.9078 -5.89296,0 -5.89296,-5.80818 v -1.35665 q 0,-4.40913 5.12984,-5.85057 l 5.93536,-1.65342 v -3.6884 q -0.0424,-1.73822 -0.97509,-2.54373 -0.9327,-0.80551 -3.77319,-0.80551 -2.7981,0 -5.17225,0.84791 v -2.8405 q 2.41654,-0.80551 5.5962,-0.80551 z m -3.81559,17.46691 v 1.27187 q 0,1.69581 0.80551,2.50133 0.80552,0.80551 3.05248,0.80551 2.24695,0 4.23954,-1.65342 v -7.92795 l -4.83308,1.35666 q -1.90779,0.55114 -2.58612,1.35665 -0.67833,0.80552 -0.67833,2.28935 z m 19.66221,-21.62166 v 4.36673 h 5.38421 v 2.67091 h -5.38421 v 16.11026 q 0,1.48384 0.72072,2.16217 0.72072,0.63593 2.20456,0.63593 1.48384,0 2.88289,-0.46635 v 2.7557 q -1.69582,0.42396 -3.17966,0.42396 -5.68098,0 -5.68098,-5.38422 v -16.23745 h -2.62852 v -2.67091 h 2.7557 l 0.84791,-4.36673 z m 11.91377,15.43193 h 7.88555 v -4.87547 q 0,-3.98517 -3.94277,-3.98517 -3.94278,0 -3.94278,3.98517 z m -2.96768,6.91046 v -11.78593 q 0,-3.01008 1.69582,-4.79068 1.73821,-1.82301 5.21464,-1.82301 3.47642,0 5.12984,1.82301 1.69582,1.7806 1.69582,4.79068 v 7.3768 h -10.76844 v 4.28194 q 0,1.90779 1.18707,2.84049 1.18708,0.9327 3.68841,0.9327 2.50133,0 5.17224,-0.76311 v 2.79809 q -2.11977,0.67833 -5.04506,0.67833 -7.97034,0 -7.97034,-6.35931 z"
       inkscape:connector-curvature="0" />
  </g>
  <text
     xml:space="preserve"
     style="font-style:normal;font-weight:normal;font-size:18.0934124px;line-height:1.25;font-family:sans-serif;letter-spacing:0px;word-spacing:0px;fill:#000000;fill-opacity:1;stroke:none;stroke-width:0.45233533"
     x="70.753159"
     y="217.21385"
     id="text10569-4-7"><tspan
       sodipodi:role="line"
       id="tspan10567-9-68"
       x="70.753159"
       y="217.21385"
       style="font-style:normal;font-variant:normal;font-weight:normal;font-stretch:normal;font-family:khand;-inkscape-font-specification:khand;stroke-width:0.45233533">canvas library</tspan></text>
  <circle
     style="fill:#0c0000;fill-opacity:1;stroke:none;stroke-width:0.09812689;stroke-linecap:round;stroke-linejoin:round;stroke-miterlimit:4;stroke-dasharray:none;stroke-opacity:1;paint-order:normal"
     id="path10642-8"
     cx="166.05385"
     cy="199.53584"
     r="1.8727559" />
</svg>
