<?xml version="1.0" encoding="UTF-8" standalone="no"?>
<!-- Created with Inkscape (http://www.inkscape.org/) -->

<svg
   xmlns:dc="http://purl.org/dc/elements/1.1/"
   xmlns:cc="http://creativecommons.org/ns#"
   xmlns:rdf="http://www.w3.org/1999/02/22-rdf-syntax-ns#"
   xmlns:svg="http://www.w3.org/2000/svg"
   xmlns="http://www.w3.org/2000/svg"
   xmlns:sodipodi="http://sodipodi.sourceforge.net/DTD/sodipodi-0.dtd"
   xmlns:inkscape="http://www.inkscape.org/namespaces/inkscape"
   version="1.1"
   id="svg815"
   width="57"
   height="67"
   viewBox="0 0 57 67"
   sodipodi:docname="iso-canvate-aoi.svg"
   inkscape:version="0.92.2 (5c3e80d, 2017-08-06)">
  <metadata
     id="metadata821">
    <rdf:RDF>
      <cc:Work
         rdf:about="">
        <dc:format>image/svg+xml</dc:format>
        <dc:type
           rdf:resource="http://purl.org/dc/dcmitype/StillImage" />
        <dc:title></dc:title>
      </cc:Work>
    </rdf:RDF>
  </metadata>
  <defs
     id="defs819" />
  <sodipodi:namedview
     pagecolor="#ffffff"
     bordercolor="#666666"
     borderopacity="1"
     objecttolerance="10"
     gridtolerance="10"
     guidetolerance="10"
     inkscape:pageopacity="0"
     inkscape:pageshadow="2"
     inkscape:window-width="1280"
     inkscape:window-height="971"
     id="namedview817"
     showgrid="false"
     inkscape:zoom="4.778269"
     inkscape:cx="38.549555"
     inkscape:cy="29.142668"
     inkscape:window-x="-8"
     inkscape:window-y="-8"
     inkscape:window-maximized="1"
     inkscape:current-layer="svg815"
     showguides="true"
     inkscape:guide-bbox="true" />
  <path
     style="fill:#00ffff;fill-opacity:1;stroke-width:0.10231819"
     d="m 16.876376,1.0718073 c -0.06758,0.058001 0.169944,1.177832 0.439053,1.929665 0.269109,0.751833 0.552726,1.8864819 2.543978,2.366913 5.680262,0.88189 7.419678,1.913055 11.37021,3.221529 C 33.446382,9.586755 30.219014,9.6001568 29.247554,9.567397 13.646901,9.567496 1.0000986,22.214299 1,37.814952 c 0.00863,15.010993 11.756329,27.39357 26.746101,28.191543 0.149277,0.04259 0.303696,0.06448 0.458927,0.06504 0.936591,7.13e-4 1.696304,-0.758192 1.696588,-1.694782 -2.84e-4,-0.93659 -0.759997,-1.695496 -1.696588,-1.694781 -0.01868,2.93e-4 -0.03735,8.52e-4 -0.05601,0.0019 C 14.834578,62.096727 4.336154,51.14231 4.315483,37.814949 c 0.4302793,-3.057437 1.6778682,-5.912851 3.4058232,-8.52811 -0.7112828,2.187958 -1.1003524,4.521999 -1.1003428,6.947156 0.00706,11.932278 9.3452546,21.775188 21.2606476,22.409775 0.118684,0.03411 0.241491,0.05174 0.364974,0.0524 0.744466,1.32e-4 1.348008,-0.603409 1.347875,-1.347874 -8.64e-4,-0.743761 -0.604114,-1.346202 -1.347875,-1.346068 -0.01506,3.5e-4 -0.03012,8.81e-4 -0.04517,0.0019 C 17.616884,55.537531 9.2711053,46.828825 9.255286,36.234024 c 0.00435,-4.761246 1.722563,-9.361805 4.840424,-12.960196 -1.848805,2.974588 -2.830604,6.406187 -2.834873,9.908505 0.0058,9.997574 7.829841,18.244617 17.813267,18.776296 0.09932,0.02835 0.202063,0.04293 0.305351,0.04337 0.624404,0.0011 1.131133,-0.504846 1.131058,-1.129252 -9.22e-4,-0.6237 -0.507358,-1.128519 -1.131058,-1.127444 -0.01204,-1.93e-4 -0.02408,-1.93e-4 -0.03614,0 C 20.47537,49.354728 13.482744,42.05887 13.468746,33.18234 c 2.92e-4,-6.838288 4.137316,-12.706416 10.042209,-15.251221 2.661611,-0.584225 4.804655,-0.853094 5.879337,0.785959 2.398017,2.774444 -8.157743,5.313184 -3.826808,15.419254 -2.365316,-11.574509 3.784187,-8.92883 8.446803,-14.311684 l 8.099896,-1.996517 c 1.375252,0.414382 5.227229,1.365222 8.161328,1.730918 0.04432,0.352077 0.05487,1.02224 0.03252,2.403047 l 1.606247,-2.256697 c 0.209685,0.0074 0.409393,0.0093 0.592632,0.0054 0.166054,0.229809 0.3918,0.432169 0.500484,0.449894 0.381513,0.06207 0.317784,2.125535 -0.10118,3.27212 l -0.198748,0.545653 0.543847,-0.317997 c 0.986033,-0.578463 1.856057,-1.869491 2.02362,-3.001099 l 0.07227,-0.495064 c 0.197833,-1.705668 0.147764,1.757189 0.661291,-2.571079 -0.110765,-0.153536 -0.08823,-0.448861 0.06504,-0.896175 -2.654975,-1.061755 -5.001516,-1.246196 -7.16036,-2.489775 -0.354709,-0.396824 -0.440176,-0.581958 -0.449894,-0.964832 -0.01122,-0.437361 -0.05597,-0.512417 -0.579984,-0.997355 -0.311959,-0.288709 -0.934276,-0.724798 -1.382204,-0.968446 -0.216535,-0.117912 -0.50183,-0.250803 -0.814868,-0.390268 l -0.10118,-0.106645 C 43.855552,8.9765873 39.488015,5.9773343 36.543423,4.5733913 33.487867,3.1165523 29.512107,1.9542483 26.110945,1.5253153 c -3.145911,-0.396769 -4.349437,-0.320215 -1.848359,0.117442 3.89296,0.681111 7.812957,2.17645 11.554504,4.410405 1.190079,0.710566 2.878148,1.954218 3.490742,2.502422 L 35.226265,7.0143823 C 30.091179,5.5878763 28.68815,5.4860533 22.473851,4.4595623 20.32256,4.0697795 18.675489,3.7334103 17.550313,2.0257993 17.19614,1.4882063 16.891721,1.058638 16.876376,1.0718073 Z M 40.052235,12.740139 c 0.191966,-0.0014 0.430644,0.0041 0.710073,0.01987 0.361964,0.02128 0.69001,0.05875 0.990128,0.110215 0.90037,0.155312 1.549153,0.455085 2.103119,0.953992 0.330709,0.29783 0.7762,0.610185 0.98832,0.693813 0.541066,0.213083 0.541497,0.265396 0.0054,0.352326 -0.258039,0.04237 -0.531687,0.123957 -0.607086,0.182487 -0.495743,0.386536 -2.19521,-0.295099 -2.79151,-1.120218 -0.294656,-0.40773 -1.036562,-0.860966 -1.636963,-1.000968 -0.324162,-0.07558 -0.366485,-0.136052 -0.187907,-0.168033 v 0.0019 c 0.08929,-0.01591 0.23444,-0.02394 0.426405,-0.02529 z m 1.035298,6.316583 -5.897406,1.317159 c 0.839178,0.451927 3.958982,2.246127 4.744665,2.636125 0.641861,0.331291 1.741572,1.035933 2.442798,1.564691 l 1.273796,0.959413 0.545654,1.318965 c 0.299832,0.725718 0.624154,1.42908 0.720914,1.562885 0.09673,0.133923 0.516446,0.372619 0.932311,0.529394 0.415837,0.156783 0.801213,0.349348 0.858231,0.428211 0.118535,0.164026 -0.02457,0.884576 -0.240305,1.210558 -0.240874,0.363983 0.08675,0.352681 0.556496,-0.01987 0.350634,-0.277922 0.453028,-0.306244 0.500484,-0.140931 0.07034,0.24524 0.275628,0.107776 0.439053,-0.292702 0.06235,-0.152897 0.139927,-0.443304 0.173452,-0.645029 0.05095,-0.306425 0.12604,-0.387011 0.451701,-0.493257 0.299833,-0.09794 0.44403,-0.227155 0.625154,-0.561916 0.334397,-0.618103 0.528946,-1.897038 0.294509,-1.935084 -0.127499,-0.02063 -0.173205,-0.146294 -0.151772,-0.404725 0.01701,-0.205895 -0.04128,-0.545293 -0.128281,-0.753437 l -0.159,-0.377621 -0.149964,0.654061 c -0.224645,0.972947 -0.451214,1.210991 -0.990128,1.035299 l -0.442667,-0.14635 c 0,0 -0.0549,1.118394 -2.348844,-1.389432 -1.324172,-1.425497 -1.604708,-1.826947 -2.139254,-3.053496 -0.139005,-0.318959 -1.714672,-2.469903 -1.911597,-3.002906 z"
     id="path10251-4-7"
     inkscape:connector-curvature="0"
     sodipodi:nodetypes="szcccccccccccccccccccccccccccccccccccccccccccccccccccccccccscccccccccccccccccccccccccccccccccccccccc" />
  <path
     sodipodi:type="star"
     style="fill:#000000;fill-opacity:0;stroke:none;stroke-width:1;stroke-linecap:round;stroke-linejoin:round;stroke-miterlimit:4;stroke-dasharray:none;stroke-opacity:1;paint-order:normal"
     id="path2679"
     sodipodi:sides="5"
     sodipodi:cx="-377.49832"
     sodipodi:cy="-541.73346"
     sodipodi:r1="323.93066"
     sodipodi:r2="161.96533"
     sodipodi:arg1="0.67877047"
     sodipodi:arg2="1.307089"
     inkscape:flatsided="false"
     inkscape:rounded="0"
     inkscape:randomized="0"
     d="m -125.36843,-338.35797 -209.91177,-47.00926 -157.72729,146.27003 -20.15784,-214.16461 -187.85148,-104.80765 197.45354,-85.35175 41.6287,-211.04471 142.19083,161.41433 213.57943,-25.62516 -109.57477,185.11129 z"
     inkscape:transform-center-x="26.092236"
     inkscape:transform-center-y="-5.0481008" />
</svg>
